<svg width="640" height="480" viewBox="0 0 640 480" fill="none" xmlns="http://www.w3.org/2000/svg">
  <rect width="640" height="480" fill="#F6FBFF"/>
  <rect x="86" y="58" width="468" height="364" rx="26" fill="#F2C94C"/>
  <path d="M320 120C239 120 174 183 174 260C174 322 223 366 284 366H356C417 366 466 322 466 260C466 183 401 120 320 120Z" fill="white"/>
  <path d="M252 247C252 220 274 198 301 198H339C366 198 388 220 388 247C388 274 366 296 339 296H301C274 296 252 274 252 247Z" fill="#B9EFD1"/>
  <path d="M320 198V296" stroke="#1F2933" stroke-width="12" stroke-linecap="round"/>
  <text x="138" y="399" fill="#1F2933" font-family="Arial, sans-serif" font-size="32" font-weight="700">Psychology</text>
</svg>
