<svg width="240" height="240" viewBox="0 0 240 240" xmlns="http://www.w3.org/2000/svg">
  <rect width="240" height="240" fill="#fff"/>
  <rect x="16" y="16" width="64" height="64" fill="#0056b3"/>
  <rect x="28" y="28" width="40" height="40" fill="#fff"/>
  <rect x="42" y="42" width="12" height="12" fill="#0056b3"/>
  <rect x="160" y="16" width="64" height="64" fill="#0056b3"/>
  <rect x="172" y="28" width="40" height="40" fill="#fff"/>
  <rect x="186" y="42" width="12" height="12" fill="#0056b3"/>
  <rect x="16" y="160" width="64" height="64" fill="#0056b3"/>
  <rect x="28" y="172" width="40" height="40" fill="#fff"/>
  <rect x="42" y="186" width="12" height="12" fill="#0056b3"/>
  <rect x="96" y="16" width="16" height="48" fill="#111827"/>
  <rect x="128" y="32" width="16" height="16" fill="#28a745"/>
  <rect x="96" y="88" width="48" height="16" fill="#111827"/>
  <rect x="160" y="96" width="16" height="32" fill="#28a745"/>
  <rect x="192" y="96" width="32" height="16" fill="#111827"/>
  <rect x="16" y="104" width="16" height="32" fill="#28a745"/>
  <rect x="48" y="120" width="48" height="16" fill="#111827"/>
  <rect x="112" y="120" width="16" height="32" fill="#0056b3"/>
  <rect x="144" y="144" width="48" height="16" fill="#111827"/>
  <rect x="208" y="144" width="16" height="16" fill="#28a745"/>
  <rect x="96" y="176" width="48" height="16" fill="#0056b3"/>
  <rect x="160" y="176" width="16" height="48" fill="#111827"/>
  <rect x="192" y="192" width="32" height="16" fill="#28a745"/>
  <rect x="112" y="216" width="32" height="8" fill="#111827"/>
</svg>
