<svg width="240" height="240" viewBox="0 0 240 240" xmlns="http://www.w3.org/2000/svg">
  <rect width="240" height="240" fill="#fff"/>
  <rect x="16" y="16" width="64" height="64" fill="#0056b3"/>
  <rect x="28" y="28" width="40" height="40" fill="#fff"/>
  <rect x="40" y="40" width="16" height="16" fill="#0056b3"/>
  <rect x="160" y="16" width="64" height="64" fill="#0056b3"/>
  <rect x="172" y="28" width="40" height="40" fill="#fff"/>
  <rect x="184" y="40" width="16" height="16" fill="#0056b3"/>
  <rect x="16" y="160" width="64" height="64" fill="#0056b3"/>
  <rect x="28" y="172" width="40" height="40" fill="#fff"/>
  <rect x="40" y="184" width="16" height="16" fill="#0056b3"/>
  <rect x="96" y="24" width="16" height="16" fill="#111827"/>
  <rect x="120" y="16" width="16" height="40" fill="#111827"/>
  <rect x="96" y="64" width="40" height="16" fill="#28a745"/>
  <rect x="144" y="96" width="16" height="16" fill="#111827"/>
  <rect x="16" y="104" width="24" height="16" fill="#111827"/>
  <rect x="56" y="104" width="32" height="16" fill="#28a745"/>
  <rect x="104" y="104" width="24" height="24" fill="#111827"/>
  <rect x="176" y="104" width="48" height="16" fill="#111827"/>
  <rect x="96" y="144" width="16" height="48" fill="#0056b3"/>
  <rect x="120" y="144" width="40" height="16" fill="#111827"/>
  <rect x="176" y="144" width="16" height="16" fill="#28a745"/>
  <rect x="208" y="144" width="16" height="48" fill="#111827"/>
  <rect x="120" y="184" width="16" height="40" fill="#111827"/>
  <rect x="152" y="184" width="40" height="16" fill="#0056b3"/>
  <rect x="184" y="208" width="40" height="16" fill="#28a745"/>
</svg>
